#tb 0: 1/25
#media_type 0: video
#codec_id 0: rawvideo
#dimensions 0: 1920x1080
#sar 0: 0/1
0,          0,          0,        1,  3110400, 0xfc052e85
0,          1,          1,        1,  3110400, 0xfb49bf20
0,          2,          2,        1,  3110400, 0x549eef2b
0,          3,          3,        1,  3110400, 0xc3857801
0,          4,          4,        1,  3110400, 0xb27d6aea
0,          5,          5,        1,  3110400, 0xa52e1d58
0,          6,          6,        1,  3110400, 0x02d348e6
0,          7,          7,        1,  3110400, 0x45a9c47c
0,          8,          8,        1,  3110400, 0xc308e886
0,          9,          9,        1,  3110400, 0x43cd6ed6
0,         10,         10,        1,  3110400, 0x29a054ce
0,         11,         11,        1,  3110400, 0x76fbd08e
0,         12,         12,        1,  3110400, 0x8638d5e2
0,         13,         13,        1,  3110400, 0xfb4b7823
0,         14,         14,        1,  3110400, 0x66185e15
0,         15,         15,        1,  3110400, 0x82eaea0a
0,         16,         16,        1,  3110400, 0x5895f1c6
0,         17,         17,        1,  3110400, 0x0a28a1c7
0,         18,         18,        1,  3110400, 0x37f2ecc8
0,         19,         19,        1,  3110400, 0x0ad8b6c1
0,         20,         20,        1,  3110400, 0x90300dcb
0,         21,         21,        1,  3110400, 0x9731112d
0,         22,         22,        1,  3110400, 0x5078ba88
0,         23,         23,        1,  3110400, 0xdcfbacae
0,         24,         24,        1,  3110400, 0x40769123
0,         25,         25,        1,  3110400, 0xa09f4d29
0,         26,         26,        1,  3110400, 0xa3749feb
0,         27,         27,        1,  3110400, 0xb04c36ae
0,         28,         28,        1,  3110400, 0x4d30c177
0,         29,         29,        1,  3110400, 0xe247070a
0,         30,         30,        1,  3110400, 0x84c669d5
0,         31,         31,        1,  3110400, 0x3e0529e6
0,         32,         32,        1,  3110400, 0xd0d58b7a
0,         33,         33,        1,  3110400, 0x05de0ffa
0,         34,         34,        1,  3110400, 0x7d10a27f
0,         35,         35,        1,  3110400, 0x87dd43fe
0,         36,         36,        1,  3110400, 0xc6f39e98
0,         37,         37,        1,  3110400, 0x9bf5a18b
0,         38,         38,        1,  3110400, 0x4880f4e6
0,         39,         39,        1,  3110400, 0xbba7a2fd
0,         40,         40,        1,  3110400, 0x82fe2a14
0,         41,         41,        1,  3110400, 0x7e701e1c
0,         42,         42,        1,  3110400, 0x23cdbc0c
0,         43,         43,        1,  3110400, 0xf15977e6
0,         44,         44,        1,  3110400, 0x50df6fe2
0,         45,         45,        1,  3110400, 0x8913ddde
0,         46,         46,        1,  3110400, 0x633c8c0e
0,         47,         47,        1,  3110400, 0xea604347
0,         48,         48,        1,  3110400, 0xa5049365
0,         49,         49,        1,  3110400, 0x35da77a8
0,         50,         50,        1,  3110400, 0xcfa4af57
0,         51,         51,        1,  3110400, 0x5a3bfe64
0,         52,         52,        1,  3110400, 0x91f9ee34
0,         53,         53,        1,  3110400, 0x21b0df73
0,         54,         54,        1,  3110400, 0x7807baf2
0,         55,         55,        1,  3110400, 0x96dbaf03
0,         56,         56,        1,  3110400, 0xb8d29f57
0,         57,         57,        1,  3110400, 0x1a04f732
0,         58,         58,        1,  3110400, 0x54a34b35
0,         59,         59,        1,  3110400, 0x4850a07a
0,         60,         60,        1,  3110400, 0x7010be29
0,         61,         61,        1,  3110400, 0x7178d2e7
0,         62,         62,        1,  3110400, 0x17483898
0,         63,         63,        1,  3110400, 0x4c55872a
0,         64,         64,        1,  3110400, 0xe67b0f06
0,         65,         65,        1,  3110400, 0x958789cf
0,         66,         66,        1,  3110400, 0x5cd6ba06
0,         67,         67,        1,  3110400, 0xb7852fe2
0,         68,         68,        1,  3110400, 0x8b67bd9f
0,         69,         69,        1,  3110400, 0x9555c0ff
0,         70,         70,        1,  3110400, 0x6b99aab7
0,         71,         71,        1,  3110400, 0xcab904b7
0,         72,         72,        1,  3110400, 0xeb915c25
0,         73,         73,        1,  3110400, 0xd3066bd8
0,         74,         74,        1,  3110400, 0xa2d45cb5
0,         75,         75,        1,  3110400, 0x011db978
0,         76,         76,        1,  3110400, 0xf35b9f2c
0,         77,         77,        1,  3110400, 0x6afd3bde
0,         78,         78,        1,  3110400, 0xa1ad77b7
0,         79,         79,        1,  3110400, 0x8b4d3823
0,         80,         80,        1,  3110400, 0xd806be79
0,         81,         81,        1,  3110400, 0x29dcff87
0,         82,         82,        1,  3110400, 0x202fb0f7
0,         83,         83,        1,  3110400, 0xacfc7d1d
0,         84,         84,        1,  3110400, 0xf04bdcb8
0,         85,         85,        1,  3110400, 0x89cef288
0,         86,         86,        1,  3110400, 0x657315e2
0,         87,         87,        1,  3110400, 0x1615cb5f
0,         88,         88,        1,  3110400, 0xc6986395
0,         89,         89,        1,  3110400, 0x6b77258e
0,         90,         90,        1,  3110400, 0xcd9975ae
0,         91,         91,        1,  3110400, 0x5044fd0f
0,         92,         92,        1,  3110400, 0x20dd1132
0,         93,         93,        1,  3110400, 0xdb5a0b84
0,         94,         94,        1,  3110400, 0xf40d29ae
0,         95,         95,        1,  3110400, 0xe88bffed
0,         96,         96,        1,  3110400, 0x3e50146a
0,         97,         97,        1,  3110400, 0xaacd9bfa
0,         98,         98,        1,  3110400, 0x270b2c2a
0,         99,         99,        1,  3110400, 0xc727f760
